<?xml version="1.0" encoding="UTF-8"?>
<svg xmlns="http://www.w3.org/2000/svg" xmlns:xlink="http://www.w3.org/1999/xlink" width="5px" height="5px" viewBox="0 0 14 19" version="1.1">
<g id="surface1">
<path style=" stroke:none;fill-rule:evenodd;fill:rgb(17.254902%,17.254902%,16.862746%);fill-opacity:1;" d="M 3.375 8.765625 C 3.910156 9.902344 3.746094 11.085938 3.011719 11.402344 C 2.273438 11.722656 1.246094 11.058594 0.710938 9.917969 C 0.175781 8.78125 0.339844 7.597656 1.074219 7.28125 C 1.8125 6.960938 2.839844 7.625 3.375 8.765625 Z M 3.375 8.765625 "/>
<path style=" stroke:none;fill-rule:evenodd;fill:rgb(17.254902%,17.254902%,16.862746%);fill-opacity:1;" d="M 10.65625 8.765625 C 10.121094 9.902344 10.28125 11.085938 11.019531 11.402344 C 11.753906 11.722656 12.785156 11.058594 13.320312 9.917969 C 13.855469 8.78125 13.691406 7.597656 12.957031 7.28125 C 12.21875 6.960938 11.1875 7.625 10.65625 8.765625 Z M 10.65625 8.765625 "/>
<path style=" stroke:none;fill-rule:evenodd;fill:rgb(17.254902%,17.254902%,16.862746%);fill-opacity:1;" d="M 6.507812 6.480469 C 6.78125 7.703125 6.363281 8.824219 5.574219 8.988281 C 4.785156 9.152344 3.921875 8.292969 3.648438 7.074219 C 3.371094 5.851562 3.789062 4.730469 4.582031 4.566406 C 5.371094 4.40625 6.230469 5.261719 6.507812 6.480469 Z M 6.507812 6.480469 "/>
<path style=" stroke:none;fill-rule:evenodd;fill:rgb(17.254902%,17.254902%,16.862746%);fill-opacity:1;" d="M 7.503906 6.484375 C 7.230469 7.703125 7.648438 8.824219 8.4375 8.988281 C 9.226562 9.152344 10.089844 8.296875 10.363281 7.074219 C 10.636719 5.855469 10.21875 4.730469 9.429688 4.570312 C 8.640625 4.40625 7.777344 5.261719 7.503906 6.484375 Z M 7.503906 6.484375 "/>
<path style=" stroke:none;fill-rule:evenodd;fill:rgb(17.254902%,17.254902%,16.862746%);fill-opacity:1;" d="M 5.519531 10.5625 C 5.324219 10.882812 4.433594 11.941406 3.816406 12.300781 C 3.195312 12.660156 2.433594 13.1875 2.558594 14.402344 C 2.6875 15.617188 3.984375 16.136719 4.839844 16.089844 C 5.691406 16.042969 7.300781 15.890625 8.449219 16.046875 C 9.597656 16.199219 11.046875 16.082031 11.386719 14.921875 C 11.726562 13.757812 10.96875 13.019531 10.375 12.597656 C 9.785156 12.179688 8.792969 10.925781 8.488281 10.347656 C 8.183594 9.769531 6.632812 8.714844 5.519531 10.5625 Z M 5.519531 10.5625 "/>
</g>
</svg>
